<svg width="104" height="32" viewBox="0 0 104 32" fill="none" xmlns="http://www.w3.org/2000/svg">
<path fill-rule="evenodd" clip-rule="evenodd" d="M31.9996 16C31.9996 20.5952 30.0624 24.738 26.9602 27.6562L31.3039 32H15.652V31.9963C6.97614 31.8113 0 24.7203 0 16C0 7.16344 7.16335 0 15.9998 0C24.8362 0 31.9996 7.16344 31.9996 16ZM25.7384 16.0002C25.7384 19.673 23.7053 22.871 20.7032 24.5301L21.9124 25.7393H15.9994C10.6207 25.7393 6.26042 21.379 6.26042 16.0002C6.26042 10.6214 10.6207 6.26107 15.9994 6.26107C21.3781 6.26107 25.7384 10.6214 25.7384 16.0002Z" fill="#565ADD"/>
<path d="M46.4589 31.9993C44.2477 31.9993 42.2275 31.4942 40.3985 30.4842C38.5968 29.4741 37.1499 28.0954 36.0579 26.3483C34.9933 24.5738 34.4609 22.5673 34.4609 20.3287C34.4609 18.0629 34.9933 16.0564 36.0579 14.3092C37.1499 12.562 38.5968 11.1834 40.3985 10.1733C42.2275 9.16324 44.2477 8.6582 46.4589 8.6582C48.6701 8.6582 50.6766 9.16324 52.4784 10.1733C54.2801 11.1834 55.7133 12.562 56.778 14.3092C57.87 16.0564 58.4159 18.0629 58.4159 20.3287C58.4159 22.5673 57.87 24.5738 56.778 26.3483C55.7133 28.0954 54.2801 29.4741 52.4784 30.4842C50.6766 31.4942 48.6701 31.9993 46.4589 31.9993ZM46.4589 26.4711C47.5782 26.4711 48.5473 26.2118 49.3663 25.6931C50.2125 25.1744 50.8677 24.451 51.3318 23.5228C51.8232 22.5946 52.0689 21.5299 52.0689 20.3287C52.0689 19.1276 51.8232 18.0765 51.3318 17.1756C50.8677 16.2475 50.2125 15.524 49.3663 15.0053C48.5473 14.4593 47.5782 14.1864 46.4589 14.1864C45.3396 14.1864 44.3569 14.4593 43.5106 15.0053C42.6643 15.524 41.9955 16.2475 41.5041 17.1756C41.04 18.0765 40.808 19.1276 40.808 20.3287C40.808 21.5299 41.04 22.5946 41.5041 23.5228C41.9955 24.451 42.6643 25.1744 43.5106 25.6931C44.3569 26.2118 45.3396 26.4711 46.4589 26.4711Z" fill="#565ADD"/>
<path d="M71.9941 31.9993C69.7829 31.9993 67.7627 31.4942 65.9337 30.4842C64.1319 29.4741 62.6851 28.0954 61.5931 26.3483C60.5285 24.5738 59.9961 22.5673 59.9961 20.3287C59.9961 18.0629 60.5285 16.0564 61.5931 14.3092C62.6851 12.562 64.1319 11.1834 65.9337 10.1733C67.7627 9.16324 69.7829 8.6582 71.9941 8.6582C74.2053 8.6582 76.2118 9.16324 78.0136 10.1733C79.8153 11.1834 81.2485 12.562 82.3132 14.3092C83.4051 16.0564 83.9511 18.0629 83.9511 20.3287C83.9511 22.5673 83.4051 24.5738 82.3132 26.3483C81.2485 28.0954 79.8153 29.4741 78.0136 30.4842C76.2118 31.4942 74.2053 31.9993 71.9941 31.9993ZM71.9941 26.4711C73.1134 26.4711 74.0825 26.2118 74.9015 25.6931C75.7477 25.1744 76.4029 24.451 76.867 23.5228C77.3584 22.5946 77.6041 21.5299 77.6041 20.3287C77.6041 19.1276 77.3584 18.0765 76.867 17.1756C76.4029 16.2475 75.7477 15.524 74.9015 15.0053C74.0825 14.4593 73.1134 14.1864 71.9941 14.1864C70.8748 14.1864 69.8921 14.4593 69.0458 15.0053C68.1995 15.524 67.5307 16.2475 67.0393 17.1756C66.5752 18.0765 66.3432 19.1276 66.3432 20.3287C66.3432 21.5299 66.5752 22.5946 67.0393 23.5228C67.5307 24.451 68.1995 25.1744 69.0458 25.6931C69.8921 26.2118 70.8748 26.4711 71.9941 26.4711Z" fill="#565ADD"/>
<path d="M95.1952 31.9993C92.7383 31.9993 90.5953 31.426 88.7663 30.2794C86.9645 29.1055 85.736 27.5358 85.0809 25.5702L89.5852 23.4409C90.1585 24.6421 90.9365 25.5839 91.9193 26.2664C92.9021 26.9489 93.994 27.2901 95.1952 27.2901C96.0688 27.2901 96.7376 27.1127 97.2017 26.7578C97.6658 26.4029 97.8978 25.9115 97.8978 25.2836C97.8978 24.956 97.8159 24.683 97.6521 24.4646C97.4883 24.2189 97.2426 24.0005 96.915 23.8094C96.5875 23.6183 96.178 23.4545 95.6866 23.318L91.8784 22.2534C90.0493 21.7347 88.6434 20.902 87.6606 19.7554C86.6779 18.5816 86.1865 17.2029 86.1865 15.6196C86.1865 14.2273 86.5414 13.0125 87.2511 11.9751C87.9609 10.9377 88.9574 10.1324 90.2404 9.55909C91.5235 8.9585 92.9976 8.6582 94.6629 8.6582C96.8468 8.6582 98.7577 9.17689 100.396 10.2143C102.061 11.2244 103.235 12.6576 103.917 14.5139L99.372 16.6433C99.0444 15.7151 98.4438 14.978 97.5702 14.432C96.724 13.8588 95.7548 13.5721 94.6629 13.5721C93.8712 13.5721 93.2433 13.7359 92.7792 14.0635C92.3424 14.3911 92.1241 14.8415 92.1241 15.4148C92.1241 15.7151 92.2059 15.9881 92.3697 16.2338C92.5335 16.4795 92.7929 16.6979 93.1478 16.889C93.53 17.0801 93.994 17.2575 94.54 17.4213L98.1026 18.486C99.9589 19.032 101.378 19.8646 102.361 20.9839C103.344 22.0759 103.835 23.4272 103.835 25.0379C103.835 26.4302 103.467 27.645 102.73 28.6824C102.02 29.7198 101.024 30.5387 99.7405 31.1393C98.4575 31.7126 96.9423 31.9993 95.1952 31.9993Z" fill="#565ADD"/>
</svg>
